<svg xmlns="http://www.w3.org/2000/svg" width="20" height="20" fill="none" viewBox="0 0 20 20"><path fill="#EE4D2D" fill-rule="evenodd" d="M6.836 6.8V5h.99v1.8zm0 2.8V7.8h.99v1.8zm0 2.799v-1.8h.99v1.8zm0 2.801v-1.8h.99v1.8z" clip-rule="evenodd"/><path fill="#EE4D2D" fill-rule="evenodd" d="M18 5.5v3.375h-1.2c-.663 0-1.2.504-1.2 1.125s.537 1.125 1.2 1.125H18V14.5c0 .828-.716 1.5-1.6 1.5H3.6c-.884 0-1.6-.672-1.6-1.5v-3.375h.8c.663 0 1.2-.504 1.2-1.125s-.537-1.125-1.2-1.125H2V5.5C2 4.672 2.716 4 3.6 4h12.8c.884 0 1.6.672 1.6 1.5m-14.8 0c0-.207.18-.375.4-.375h12.8c.22 0 .4.168.4.375v2.25c-1.325 0-2.4 1.007-2.4 2.25s1.075 2.25 2.4 2.25v2.25c0 .207-.18.375-.4.375H3.6c-.22 0-.4-.168-.4-.375v-2.281c1.135-.179 2-1.104 2-2.219s-.865-2.04-2-2.219z" clip-rule="evenodd"/></svg>