<?xml version="1.0" standalone="no"?>
<!DOCTYPE svg PUBLIC "-//W3C//DTD SVG 20010904//EN"
 "http://www.w3.org/TR/2001/REC-SVG-20010904/DTD/svg10.dtd">
<svg version="1.0" xmlns="http://www.w3.org/2000/svg"
 width="600.000000pt" height="347.000000pt" viewBox="0 0 600.000000 347.000000"
 preserveAspectRatio="xMidYMid meet">

<g transform="translate(0.000000,347.000000) scale(0.100000,-0.100000)"
fill="#000000" stroke="none">
<path d="M1693 2815 c-33 -14 -73 -67 -73 -97 0 -25 -21 -28 -177 -25 -134 2
-144 1 -164 -20 -28 -28 -28 -72 1 -95 21 -17 55 -18 530 -18 478 0 508 -1
523 -18 24 -26 21 -65 -6 -90 l-23 -22 -631 0 c-623 0 -631 0 -657 -21 -31
-24 -35 -68 -8 -92 17 -15 71 -17 565 -17 534 0 547 0 567 -20 29 -29 26 -74
-6 -99 -26 -21 -36 -21 -500 -21 l-473 0 -20 -26 c-26 -33 -27 -58 -1 -84 20
-20 33 -20 623 -20 331 0 607 -4 613 -8 35 -23 37 -68 6 -104 -14 -17 -62 -18
-739 -18 l-724 0 -25 -25 c-33 -33 -30 -84 6 -102 19 -10 146 -13 537 -13 452
0 513 -2 527 -16 23 -23 20 -67 -7 -92 -22 -21 -32 -22 -224 -22 l-201 0 -6
-27 c-3 -16 -10 -88 -16 -161 -6 -73 -15 -174 -19 -225 -16 -169 6 -187 226
-187 l149 0 11 54 c29 139 126 260 259 323 77 37 82 38 189 38 105 0 114 -2
177 -33 119 -58 194 -170 207 -305 l6 -72 672 -3 672 -2 10 52 c17 82 53 148
115 216 102 109 214 157 356 150 73 -3 98 -9 153 -36 124 -61 198 -172 213
-316 l7 -66 36 0 c42 0 93 28 116 64 16 25 48 317 62 572 5 104 4 114 -19 165
-24 52 -175 225 -376 431 -111 115 -122 118 -424 118 l-241 0 7 83 c24 308 22
327 -39 353 -51 21 -2294 20 -2342 -1z m2866 -561 c30 -12 82 -62 206 -197
l166 -182 -392 -3 c-216 -1 -396 1 -399 5 -4 5 1 91 11 193 10 102 18 188 18
193 1 4 80 7 176 7 137 0 183 -3 214 -16z"/>
<path d="M2242 1360 c-103 -22 -211 -112 -260 -218 -35 -75 -37 -193 -5 -263
28 -63 81 -120 140 -149 42 -22 61 -25 148 -25 95 0 103 2 163 34 74 40 131
101 169 180 23 47 27 69 27 136 0 98 -25 163 -87 223 -74 72 -189 104 -295 82z
m121 -174 c107 -44 126 -182 37 -267 -73 -69 -173 -70 -237 -3 -76 81 -40 213
72 265 48 22 84 24 128 5z"/>
<path d="M4442 1359 c-104 -20 -200 -93 -253 -191 -32 -60 -34 -68 -34 -163 0
-79 4 -107 19 -135 34 -64 74 -106 128 -136 49 -27 61 -29 153 -29 120 0 166
18 246 92 96 90 141 233 110 350 -27 98 -112 182 -214 209 -58 15 -91 16 -155
3z m128 -181 c100 -52 109 -185 17 -265 -72 -63 -165 -64 -226 -2 -37 36 -45
64 -39 129 6 61 41 110 100 139 55 27 93 27 148 -1z"/>
</g>
</svg>
